<?xml version="1.0" encoding="utf-8"?>
<!-- Generator: Adobe Illustrator 17.1.0, SVG Export Plug-In . SVG Version: 6.00 Build 0)  -->
<!DOCTYPE svg PUBLIC "-//W3C//DTD SVG 1.1//EN" "http://www.w3.org/Graphics/SVG/1.1/DTD/svg11.dtd">


<svg version="1.1" id="Layer_1" xmlns="http://www.w3.org/2000/svg" xmlns:xlink="http://www.w3.org/1999/xlink" x="0px" y="0px"
	 width="472px" height="392px" viewBox="0 0 472 392" enable-background="new 0 0 472 392" xml:space="preserve"><path id="Icon_awesome-user-circle" d="M 17.4375 0.5625 C 7.8046875 0.5625 0 8.3671875 0 18 C 0 27.6328125 7.8046875 35.4375 17.4375 35.4375 C 27.0703125 35.4375 34.875 27.6328125 34.875 18 C 34.875 8.3671875 27.0703125 0.5625 17.4375 0.5625 Z M 17.4375 7.3125 C 20.85468673706055 7.3125 23.625 10.08281230926514 23.625 13.5 C 23.625 16.91718673706055 20.85468673706055 19.6875 17.4375 19.6875 C 14.02031326293945 19.6875 11.25 16.91718673706055 11.25 13.5 C 11.25 10.08281326293945 14.02031230926514 7.3125 17.4375 7.3125 Z M 17.4375 31.5 C 13.31015586853027 31.5 9.611719131469727 29.62968826293945 7.13671875 26.70468711853027 C 8.458593368530273 24.21562385559082 11.04609394073486 22.5 14.0625 22.5 C 14.23124980926514 22.5 14.39999961853027 22.52812576293945 14.56171894073486 22.57734298706055 C 15.47578144073486 22.87265586853027 16.43203163146973 23.0625 17.4375 23.0625 C 18.44296836853027 23.0625 19.40625 22.87265586853027 20.31328201293945 22.57734298706055 C 20.47500038146973 22.52812385559082 20.64375114440918 22.5 20.8125 22.5 C 23.82890701293945 22.5 26.41640663146973 24.21562576293945 27.73828125 26.70468711853027 C 25.26328086853027 29.62968826293945 21.56484413146973 31.5 17.4375 31.5 Z">
                        </path>
</svg>
